<?xml version="1.0" encoding="utf-8"?>
<!-- Generator: Adobe Illustrator 25.4.0, SVG Export Plug-In . SVG Version: 6.00 Build 0)  -->
<svg version="1.1" id="Слой_1" xmlns="http://www.w3.org/2000/svg" xmlns:xlink="http://www.w3.org/1999/xlink" x="0px" y="0px"
	 viewBox="0 0 400 190.99" style="enable-background:new 0 0 400 190.99;" xml:space="preserve">
<style type="text/css">
	.st0{fill:#4BC0EE;}
	.st1{fill:#FFD000;}
	.st2{fill:#DC75A4;}
	.st3{fill:#EB2426;}
	.st4{fill:#FFFFFF;}
</style>
<g>
	<g>
		<path class="st0" d="M41.23,130.42c1.81,1.23,3.7,2.51,5.62,3.82c10.34,7.01,21.63,14.66,26.51,18.46
			c3.33,2.58,9.02,8.42,14.9,14.77c4.92,5.31,9.97,10.99,13.87,15.44c4.17,4.75,7.03,8.09,7.03,8.09s3.14-7.27,6.21-17.54
			c0.72-2.41,1.44-4.98,2.11-7.66c1.18-4.73,3.41-12.28,6.12-20.81c5.37-16.92,12.63-37.67,17.33-47.73
			c0.68-1.45,1.48-3.05,2.37-4.74c8.38-15.91,24.86-40.61,24.86-40.61s-5.06-0.89-12.73-2.67c-6.93-1.61-15.99-3.94-25.35-7.01
			c-9.96-3.26-20.27-7.34-28.73-12.25C80.03,17.62,56.54,4.72,49.8,1.04C48.57,0.37,47.9,0,47.9,0s-6.86,24-14.94,44.66
			c-2.19,5.61-4.48,10.98-6.74,15.56C15.63,81.64,10.34,88.69,7.56,90.96c-1.37,1.12-3.23,2.85-4.76,4.32
			C1.23,96.79,0,98.01,0,98.01s14.63,12.33,22.97,19.17c1.63,1.34,3.02,2.47,4.01,3.25C29.17,122.17,34.67,125.96,41.23,130.42z"/>
		<circle class="st1" cx="134.63" cy="97.96" r="12.68"/>
		<circle class="st2" cx="80.77" cy="92" r="17.75"/>
		<g>
			<path d="M47.96,91.3c0-17.35,13.61-30.96,32.07-30.96c10.46,0,17.86,3.23,24.16,8.68l-9.7,11.65c-4.25-3.57-8.51-5.61-14.38-5.61
				c-8.59,0-15.23,7.23-15.23,16.5c0,9.61,6.72,16.5,16.16,16.5c4,0,7.06-0.85,9.53-2.47v-7.23H78.83V86.28h27.39v26.8
				c-6.29,5.19-15.06,9.19-25.86,9.19C61.82,122.27,47.96,109.51,47.96,91.3z"/>
			<path d="M108.35,98.11c0-13.1,10.72-24.07,25.52-24.07c14.72,0,25.35,10.8,25.35,24.07c0,13.1-10.72,24.07-25.52,24.07
				C118.99,122.18,108.35,111.38,108.35,98.11z M143.49,98.11c0-5.61-4.08-10.38-9.78-10.38c-5.87,0-9.61,4.68-9.61,10.38
				c0,5.61,4.08,10.38,9.78,10.38C139.74,108.49,143.49,103.81,143.49,98.11z"/>
		</g>
		<circle class="st3" cx="88.53" cy="24.39" r="19.87"/>
		<circle class="st1" cx="21.03" cy="70.17" r="10.57"/>
		<circle class="st4" cx="84.08" cy="162.9" r="5.61"/>
		<g>
			<g>
				<path d="M224.95,76.16v-7.32h-7.71v-7.77h16.31v19.93c-4.15,3.48-9.88,4.73-16.2,4.73c-15.03,0-21.6-9.91-21.6-21.07
					s6.57-21.07,21.6-21.07c5.23,0,11.1,0.86,16.45,5.09l-4.73,6.18c-3.7-2.48-7.79-3.23-11.72-3.23c-8.35,0-12.05,5.68-12.05,13.03
					s3.7,13.03,12.05,13.03C220.92,77.69,223.14,77.08,224.95,76.16z"/>
				<path d="M234.85,70.29c0-9.02,6.62-15.17,16.87-15.17s16.87,6.15,16.87,15.17c0,8.96-6.62,15.17-16.87,15.17
					S234.85,79.25,234.85,70.29z M259.46,70.29c0-4.7-2.62-8.15-7.74-8.15s-7.74,3.45-7.74,8.15s2.62,8.15,7.74,8.15
					S259.46,75,259.46,70.29z"/>
				<path d="M270.19,42.43h9.13v30.5c0,2.34-0.03,4.68,2.23,4.68h1.09v7.01h-2.95c-9.49,0-9.49-7.15-9.49-10.85V42.43z"/>
				<path d="M302.77,65.98c0-2.56-0.61-4.12-5.09-4.12c-3.03,0-5.9,0.45-9.13,1.81l-3.03-5.84c3.95-2,9.05-2.7,12.72-2.7
					c10.74,0,13.67,4.04,13.67,11.83v17.67h-9.16v-3.76c-1.56,3.45-4.98,4.43-8.63,4.43c-5.76,0-10.99-2.78-10.99-9.55
					C283.12,66.9,293.17,65.09,302.77,65.98z M296.34,78.28c4.12,0,6.4-2.28,6.4-4.76v-2.48c-3.34-0.22-10.49-0.19-10.49,3.87
					C292.25,76.89,293.45,78.28,296.34,78.28z"/>
				<path d="M323.75,84.62h-9.13V55.96h9.13v3.03c1.67-2.56,4.12-3.87,7.65-3.87c9.49,0,13.16,5.51,13.16,14.64v14.86h-9.13V69.76
					c0-4.73-1.42-7.63-5.84-7.63s-5.84,2.89-5.84,7.63V84.62z"/>
				<path d="M379.35,55.96v28.67c0,11.75-8.99,14.81-17.73,14.81c-4.29,0-9.18-0.72-13.61-3.23l3.48-6.35
					c3.53,1.92,6.62,2.56,10.13,2.56c5.01,0,8.6-2.37,8.6-7.79v-3.79c-1.7,2.59-4.81,4.62-9.41,4.62c-8.54,0-14.64-5.65-14.64-15.17
					s6.1-15.17,14.64-15.17c4.62,0,7.68,2.06,9.41,4.62v-3.79H379.35z M362.76,78.45c4.81,0,7.46-3.45,7.46-8.15
					s-2.64-8.15-7.46-8.15s-7.46,3.45-7.46,8.15S357.94,78.45,362.76,78.45z"/>
				<path d="M216.55,133.53c5.15,0,8.68-1.67,11.05-3.23l2.2,3.01c-2.92,2.23-7.1,3.84-13.25,3.84c-12.8,0-19.68-9.3-19.68-20.51
					s6.87-20.51,19.68-20.51c6.15,0,10.33,1.61,13.25,3.84l-2.2,3.01c-2.37-1.56-5.9-3.23-11.05-3.23
					c-10.41,0-15.45,7.63-15.45,16.89S206.14,133.53,216.55,133.53z"/>
				<path d="M260.43,122.6c0,8.43-5.62,14.56-14.67,14.56s-14.67-6.12-14.67-14.56s5.62-14.56,14.67-14.56
					S260.43,114.16,260.43,122.6z M235.24,122.6c0,6.35,3.56,11.27,10.52,11.27s10.52-4.93,10.52-11.27
					c0-6.35-3.56-11.27-10.52-11.27S235.24,116.25,235.24,122.6z"/>
				<path d="M268.19,108.6v4.59c0.97-2.34,3.53-5.15,8.46-5.15c8.02,0,12.39,4.81,12.39,12.97v15.59h-3.92v-15.59
					c0-5.71-2.48-9.69-8.46-9.69s-8.46,3.98-8.46,9.69v15.59h-3.92v-28H268.19z"/>
				<path d="M310.48,108.6v3.28h-8.46v24.71h-3.92v-24.71h-5.79v-3.28h5.79v-1.78c0-8.57,2.2-12.97,9.02-12.97
					c2.14,0,4.37,0.47,5.48,1l-1.2,2.98c-0.75-0.25-2.23-0.7-4.01-0.7c-4.26,0-5.37,2.42-5.37,9.69v1.78H310.48z"/>
			</g>
		</g>
	</g>
	<g>
		<path class="st1" d="M322.62,118.56c0.87-2.71,3.39-6.47,9.31-6.47c5.04,0,8.77,2.44,8.77,7.63c0,2.96-2,5.02-4.28,7.31
			l-5.09,4.97h9.48v4.85h-17.88v-3.8l9.91-9.68c1.55-1.53,2.27-2.54,2.27-3.66c0-1.58-1.01-2.77-3.17-2.77
			c-2.65,0-3.68,1.88-4.32,3.29L322.62,118.56z"/>
		<path class="st1" d="M351.94,137.52c-7.29,0-10.69-5.66-10.69-12.72c0-7.06,3.39-12.72,10.69-12.72c7.27,0,10.68,5.66,10.68,12.72
			C362.62,131.86,359.23,137.52,351.94,137.52z M351.94,116.93c-3.56,0-5.09,3.07-5.09,7.88c0,4.8,1.53,7.88,5.09,7.88
			s5.09-3.07,5.09-7.88C357.03,120,355.5,116.93,351.94,116.93z"/>
		<path class="st1" d="M362.85,118.56c0.87-2.71,3.39-6.47,9.31-6.47c5.04,0,8.77,2.44,8.77,7.63c0,2.96-2,5.02-4.28,7.31
			l-5.09,4.97h9.48v4.85h-17.88v-3.8l9.91-9.68c1.55-1.53,2.27-2.54,2.27-3.66c0-1.58-1.01-2.77-3.17-2.77
			c-2.65,0-3.68,1.88-4.32,3.29L362.85,118.56z"/>
		<path class="st1" d="M381.82,118.56c0.87-2.71,3.39-6.47,9.31-6.47c5.04,0,8.77,2.44,8.77,7.63c0,2.96-2,5.02-4.28,7.31
			l-5.09,4.97H400v4.85h-17.88v-3.8l9.91-9.68c1.55-1.53,2.27-2.54,2.27-3.66c0-1.58-1.01-2.77-3.17-2.77
			c-2.65,0-3.68,1.88-4.32,3.29L381.82,118.56z"/>
	</g>
</g>
</svg>
